<svg width="36" height="36" viewBox="0 0 36 36" fill="none" xmlns="http://www.w3.org/2000/svg">
<path d="M14.1429 0C21.9537 0 28.2857 6.33197 28.2857 14.1429C28.2857 17.5855 27.0557 20.7408 25.0112 23.1933L35.6234 33.8051C36.1255 34.3073 36.1255 35.1213 35.6234 35.6234C35.1771 36.0697 34.4843 36.1193 33.9832 35.7722L33.8051 35.6234L23.1933 25.0112C20.7408 27.0557 17.5855 28.2857 14.1429 28.2857C6.33197 28.2857 0 21.9537 0 14.1429C0 6.33197 6.33197 0 14.1429 0ZM14.1429 2.57143C7.75213 2.57143 2.57143 7.75213 2.57143 14.1429C2.57143 20.5336 7.75213 25.7143 14.1429 25.7143C20.5336 25.7143 25.7143 20.5336 25.7143 14.1429C25.7143 7.75213 20.5336 2.57143 14.1429 2.57143Z" fill="#A39B9B"/>
</svg>
